<mxfile host="app.diagrams.net" modified="2023-01-12T04:01:05.736Z" agent="5.0 (Windows NT 10.0; Win64; x64) AppleWebKit/537.36 (KHTML, like Gecko) Chrome/108.0.0.0 Safari/537.36" etag="WpFcQHnskm0hOFeeSXQ6" version="20.6.0" type="github">
  <diagram name="Page-1" id="e7e014a7-5840-1c2e-5031-d8a46d1fe8dd">
    <mxGraphModel dx="1658" dy="996" grid="1" gridSize="10" guides="1" tooltips="1" connect="1" arrows="1" fold="1" page="1" pageScale="1" pageWidth="1169" pageHeight="826" background="none" math="0" shadow="0">
      <root>
        <mxCell id="0" />
        <mxCell id="1" parent="0" />
        <mxCell id="SPDB-RYZYYu29DdNVvm_-6" value="Calon Employee" style="swimlane;whiteSpace=wrap;startSize=23;" parent="1" vertex="1">
          <mxGeometry x="-980" y="30" width="370" height="890" as="geometry" />
        </mxCell>
        <mxCell id="SPDB-RYZYYu29DdNVvm_-9" value="Menekan menu evaluasi" style="rounded=1;whiteSpace=wrap;html=1;" parent="SPDB-RYZYYu29DdNVvm_-6" vertex="1">
          <mxGeometry x="55" y="112" width="120" height="60" as="geometry" />
        </mxCell>
        <mxCell id="AOkr8u-bV6MO1qzEirwp-4" value="memilih lowongan kerja yang aktif" style="whiteSpace=wrap;html=1;rounded=1;" parent="SPDB-RYZYYu29DdNVvm_-6" vertex="1">
          <mxGeometry x="55" y="250" width="120" height="60" as="geometry" />
        </mxCell>
        <mxCell id="AOkr8u-bV6MO1qzEirwp-11" value="" style="edgeStyle=orthogonalEdgeStyle;rounded=0;orthogonalLoop=1;jettySize=auto;html=1;" parent="SPDB-RYZYYu29DdNVvm_-6" source="AOkr8u-bV6MO1qzEirwp-8" target="AOkr8u-bV6MO1qzEirwp-10" edge="1">
          <mxGeometry relative="1" as="geometry" />
        </mxCell>
        <mxCell id="AOkr8u-bV6MO1qzEirwp-8" value="memilih lamaran pekerja" style="whiteSpace=wrap;html=1;rounded=1;" parent="SPDB-RYZYYu29DdNVvm_-6" vertex="1">
          <mxGeometry x="60" y="370" width="120" height="60" as="geometry" />
        </mxCell>
        <mxCell id="AOkr8u-bV6MO1qzEirwp-13" value="" style="edgeStyle=orthogonalEdgeStyle;rounded=0;orthogonalLoop=1;jettySize=auto;html=1;endArrow=open;endFill=0;" parent="SPDB-RYZYYu29DdNVvm_-6" source="AOkr8u-bV6MO1qzEirwp-10" target="AOkr8u-bV6MO1qzEirwp-12" edge="1">
          <mxGeometry relative="1" as="geometry" />
        </mxCell>
        <mxCell id="AOkr8u-bV6MO1qzEirwp-10" value="melakukan pengecekan terkait berkas dan biodata pkerja" style="whiteSpace=wrap;html=1;rounded=1;" parent="SPDB-RYZYYu29DdNVvm_-6" vertex="1">
          <mxGeometry x="60" y="470" width="120" height="60" as="geometry" />
        </mxCell>
        <mxCell id="AOkr8u-bV6MO1qzEirwp-15" value="" style="edgeStyle=orthogonalEdgeStyle;rounded=0;orthogonalLoop=1;jettySize=auto;html=1;endArrow=open;endFill=0;" parent="SPDB-RYZYYu29DdNVvm_-6" source="AOkr8u-bV6MO1qzEirwp-12" target="AOkr8u-bV6MO1qzEirwp-14" edge="1">
          <mxGeometry relative="1" as="geometry" />
        </mxCell>
        <mxCell id="AOkr8u-bV6MO1qzEirwp-17" value="" style="edgeStyle=orthogonalEdgeStyle;rounded=0;orthogonalLoop=1;jettySize=auto;html=1;endArrow=open;endFill=0;" parent="SPDB-RYZYYu29DdNVvm_-6" source="AOkr8u-bV6MO1qzEirwp-12" target="AOkr8u-bV6MO1qzEirwp-16" edge="1">
          <mxGeometry relative="1" as="geometry" />
        </mxCell>
        <mxCell id="AOkr8u-bV6MO1qzEirwp-12" value="" style="rhombus;whiteSpace=wrap;html=1;rounded=1;" parent="SPDB-RYZYYu29DdNVvm_-6" vertex="1">
          <mxGeometry x="80" y="560" width="80" height="80" as="geometry" />
        </mxCell>
        <mxCell id="AOkr8u-bV6MO1qzEirwp-14" value="menekan tombol tolak" style="whiteSpace=wrap;html=1;rounded=1;" parent="SPDB-RYZYYu29DdNVvm_-6" vertex="1">
          <mxGeometry x="220" y="570" width="140" height="60" as="geometry" />
        </mxCell>
        <mxCell id="AOkr8u-bV6MO1qzEirwp-16" value="menekan tombol terima" style="whiteSpace=wrap;html=1;rounded=1;" parent="SPDB-RYZYYu29DdNVvm_-6" vertex="1">
          <mxGeometry x="60" y="670" width="120" height="60" as="geometry" />
        </mxCell>
        <mxCell id="SPDB-RYZYYu29DdNVvm_-20" value="Sistem" style="swimlane;whiteSpace=wrap" parent="1" vertex="1">
          <mxGeometry x="-610" y="30" width="380" height="890" as="geometry" />
        </mxCell>
        <mxCell id="SPDB-RYZYYu29DdNVvm_-21" value="melakukan cek berkas pelamar" style="whiteSpace=wrap;html=1;fillColor=rgb(255, 255, 255);strokeColor=rgb(0, 0, 0);fontColor=rgb(0, 0, 0);rounded=1;" parent="SPDB-RYZYYu29DdNVvm_-20" vertex="1">
          <mxGeometry x="140.5" y="112" width="120" height="60" as="geometry" />
        </mxCell>
        <mxCell id="SPDB-RYZYYu29DdNVvm_-7" value="" style="ellipse;shape=startState;fillColor=#000000;strokeColor=#ff0000;" parent="SPDB-RYZYYu29DdNVvm_-20" vertex="1">
          <mxGeometry x="185.5" y="40" width="30" height="30" as="geometry" />
        </mxCell>
        <mxCell id="SPDB-RYZYYu29DdNVvm_-8" value="" style="edgeStyle=elbowEdgeStyle;elbow=horizontal;verticalAlign=bottom;endArrow=open;endSize=8;strokeColor=#FF0000;endFill=1;rounded=0;entryX=0.5;entryY=0;entryDx=0;entryDy=0;" parent="SPDB-RYZYYu29DdNVvm_-20" source="SPDB-RYZYYu29DdNVvm_-7" target="SPDB-RYZYYu29DdNVvm_-21" edge="1">
          <mxGeometry x="-270" y="40" as="geometry">
            <mxPoint x="-254.83333333333326" y="110" as="targetPoint" />
          </mxGeometry>
        </mxCell>
        <mxCell id="AOkr8u-bV6MO1qzEirwp-2" value="menampilkan lowongan kerja yang aktif" style="whiteSpace=wrap;html=1;rounded=1;" parent="SPDB-RYZYYu29DdNVvm_-20" vertex="1">
          <mxGeometry x="140.5" y="190" width="120" height="60" as="geometry" />
        </mxCell>
        <mxCell id="AOkr8u-bV6MO1qzEirwp-6" value="menampilkan list pelamar kerja" style="whiteSpace=wrap;html=1;rounded=1;" parent="SPDB-RYZYYu29DdNVvm_-20" vertex="1">
          <mxGeometry x="140.5" y="310" width="120" height="60" as="geometry" />
        </mxCell>
        <mxCell id="AOkr8u-bV6MO1qzEirwp-21" value="" style="edgeStyle=orthogonalEdgeStyle;rounded=0;orthogonalLoop=1;jettySize=auto;html=1;entryX=1;entryY=0.5;entryDx=0;entryDy=0;endArrow=classicThin;endFill=1;" parent="SPDB-RYZYYu29DdNVvm_-20" source="AOkr8u-bV6MO1qzEirwp-18" target="AOkr8u-bV6MO1qzEirwp-6" edge="1">
          <mxGeometry relative="1" as="geometry">
            <mxPoint x="310" y="600" as="targetPoint" />
            <Array as="points">
              <mxPoint x="281" y="600" />
              <mxPoint x="281" y="340" />
            </Array>
          </mxGeometry>
        </mxCell>
        <mxCell id="AOkr8u-bV6MO1qzEirwp-18" value="menampilkan pesan&amp;nbsp;&lt;br&gt;berhasil menolak lamaran keja" style="whiteSpace=wrap;html=1;rounded=1;" parent="SPDB-RYZYYu29DdNVvm_-20" vertex="1">
          <mxGeometry x="110" y="570" width="120" height="60" as="geometry" />
        </mxCell>
        <mxCell id="AOkr8u-bV6MO1qzEirwp-26" style="edgeStyle=orthogonalEdgeStyle;rounded=0;orthogonalLoop=1;jettySize=auto;html=1;entryX=0.5;entryY=0;entryDx=0;entryDy=0;endArrow=open;endFill=0;" parent="SPDB-RYZYYu29DdNVvm_-20" source="AOkr8u-bV6MO1qzEirwp-23" target="AOkr8u-bV6MO1qzEirwp-25" edge="1">
          <mxGeometry relative="1" as="geometry" />
        </mxCell>
        <mxCell id="AOkr8u-bV6MO1qzEirwp-23" value="menampilkan pesan&amp;nbsp;&lt;br style=&quot;border-color: var(--border-color);&quot;&gt;berhasil menerima lamaran keja" style="whiteSpace=wrap;html=1;rounded=1;" parent="SPDB-RYZYYu29DdNVvm_-20" vertex="1">
          <mxGeometry x="110" y="670" width="120" height="60" as="geometry" />
        </mxCell>
        <mxCell id="AOkr8u-bV6MO1qzEirwp-25" value="" style="ellipse;html=1;shape=endState;fillColor=#000000;strokeColor=#ff0000;" parent="SPDB-RYZYYu29DdNVvm_-20" vertex="1">
          <mxGeometry x="156" y="790" width="30" height="30" as="geometry" />
        </mxCell>
        <mxCell id="AOkr8u-bV6MO1qzEirwp-1" style="edgeStyle=orthogonalEdgeStyle;rounded=0;orthogonalLoop=1;jettySize=auto;html=1;entryX=1;entryY=0.5;entryDx=0;entryDy=0;endArrow=open;endFill=0;" parent="1" source="SPDB-RYZYYu29DdNVvm_-21" target="SPDB-RYZYYu29DdNVvm_-9" edge="1">
          <mxGeometry relative="1" as="geometry" />
        </mxCell>
        <mxCell id="AOkr8u-bV6MO1qzEirwp-3" value="" style="edgeStyle=orthogonalEdgeStyle;rounded=0;orthogonalLoop=1;jettySize=auto;html=1;endArrow=open;endFill=0;" parent="1" source="SPDB-RYZYYu29DdNVvm_-9" target="AOkr8u-bV6MO1qzEirwp-2" edge="1">
          <mxGeometry relative="1" as="geometry">
            <Array as="points">
              <mxPoint x="-860" y="250" />
            </Array>
          </mxGeometry>
        </mxCell>
        <mxCell id="AOkr8u-bV6MO1qzEirwp-5" value="" style="edgeStyle=orthogonalEdgeStyle;rounded=0;orthogonalLoop=1;jettySize=auto;html=1;endArrow=open;endFill=0;" parent="1" source="AOkr8u-bV6MO1qzEirwp-2" target="AOkr8u-bV6MO1qzEirwp-4" edge="1">
          <mxGeometry relative="1" as="geometry">
            <Array as="points">
              <mxPoint x="-409" y="310" />
            </Array>
          </mxGeometry>
        </mxCell>
        <mxCell id="AOkr8u-bV6MO1qzEirwp-7" value="" style="edgeStyle=orthogonalEdgeStyle;rounded=0;orthogonalLoop=1;jettySize=auto;html=1;endArrow=open;endFill=0;" parent="1" source="AOkr8u-bV6MO1qzEirwp-4" target="AOkr8u-bV6MO1qzEirwp-6" edge="1">
          <mxGeometry relative="1" as="geometry">
            <Array as="points">
              <mxPoint x="-865" y="370" />
            </Array>
          </mxGeometry>
        </mxCell>
        <mxCell id="AOkr8u-bV6MO1qzEirwp-9" value="" style="edgeStyle=orthogonalEdgeStyle;rounded=0;orthogonalLoop=1;jettySize=auto;html=1;endArrow=open;endFill=0;" parent="1" source="AOkr8u-bV6MO1qzEirwp-6" target="AOkr8u-bV6MO1qzEirwp-8" edge="1">
          <mxGeometry relative="1" as="geometry">
            <Array as="points">
              <mxPoint x="-400" y="430" />
            </Array>
          </mxGeometry>
        </mxCell>
        <mxCell id="AOkr8u-bV6MO1qzEirwp-19" value="" style="edgeStyle=orthogonalEdgeStyle;rounded=0;orthogonalLoop=1;jettySize=auto;html=1;endArrow=open;endFill=0;" parent="1" source="AOkr8u-bV6MO1qzEirwp-14" target="AOkr8u-bV6MO1qzEirwp-18" edge="1">
          <mxGeometry relative="1" as="geometry" />
        </mxCell>
        <mxCell id="AOkr8u-bV6MO1qzEirwp-22" value="no" style="text;html=1;align=center;verticalAlign=middle;resizable=0;points=[];autosize=1;strokeColor=none;fillColor=none;" parent="1" vertex="1">
          <mxGeometry x="-810" y="595" width="40" height="30" as="geometry" />
        </mxCell>
        <mxCell id="AOkr8u-bV6MO1qzEirwp-24" value="" style="edgeStyle=orthogonalEdgeStyle;rounded=0;orthogonalLoop=1;jettySize=auto;html=1;endArrow=open;endFill=0;" parent="1" source="AOkr8u-bV6MO1qzEirwp-16" target="AOkr8u-bV6MO1qzEirwp-23" edge="1">
          <mxGeometry relative="1" as="geometry" />
        </mxCell>
      </root>
    </mxGraphModel>
  </diagram>
</mxfile>
